<?xml version="1.0" encoding="iso-8859-1"?>
<!-- Generator: Adobe Illustrator 19.0.0, SVG Export Plug-In . SVG Version: 6.00 Build 0)  -->
<svg version="1.1" id="Layer_1" xmlns="http://www.w3.org/2000/svg" xmlns:xlink="http://www.w3.org/1999/xlink" x="0px" y="0px"
	 viewBox="0 0 512 512" style="enable-background:new 0 0 512 512;" xml:space="preserve">
<path style="fill:#D3C8BA;" d="M92.863,426.053v44.81C92.863,493.583,111.28,512,134,512H378c22.72,0,41.137-18.417,41.137-41.137
	V41.137C419.138,18.417,400.72,0,378.002,0H134c-22.718,0-41.137,18.417-41.137,41.137v353.607"/>
<path style="fill:#F7F1E6;" d="M134,492.355c-11.851,0-21.492-9.641-21.492-21.492V41.137c0-11.851,9.641-21.492,21.492-21.492H378
	c11.851,0,21.492,9.641,21.492,21.492v429.726c0,11.851-9.641,21.492-21.492,21.492H134z"/>
<path style="fill:#D83E32;" d="M200.139,87.505l-8.558,14.144l-10.031,16.576H155.36c-9.295,0-17.717-3.769-23.82-9.859
	c-6.09-6.102-9.859-14.525-9.859-23.82c0-2.873,0.356-5.66,1.031-8.312C126.42,61.66,139.632,50.88,155.36,50.88h26.189
	l14.009,27.614L200.139,87.505z"/>
<path style="fill:#96CCC6;" d="M241.406,84.546c0,18.601-15.078,33.679-33.667,33.679h-26.189V50.88h26.189
	c15.728,0,28.94,10.793,32.635,25.367v0.012C241.049,78.911,241.406,81.685,241.406,84.546z"/>
<path style="fill:#ED5343;" d="M200.139,70.93l-4.58,7.563l-14.009,23.157H155.36c-9.295,0-17.717-3.769-23.82-9.859
	c-4.224-4.236-7.33-9.577-8.828-15.556C126.42,61.66,139.632,50.88,155.36,50.88h34.6L200.139,70.93z"/>
<path style="fill:#A4DDD8;" d="M240.374,76.246v0.012c-3.696,14.599-16.907,25.391-32.635,25.391h-26.189V50.88h26.189
	C223.467,50.88,236.678,61.672,240.374,76.246z"/>
<path style="fill:#D83E32;" d="M200.139,201.815l-8.558,14.144l-10.031,16.576H155.36c-9.295,0-17.717-3.769-23.82-9.859
	c-6.09-6.102-9.859-14.525-9.859-23.82c0-2.873,0.356-5.66,1.031-8.312c3.708-14.574,16.919-25.354,32.648-25.354h26.189
	l14.009,27.614L200.139,201.815z"/>
<path style="fill:#96CCC6;" d="M241.406,198.856c0,18.601-15.078,33.679-33.667,33.679h-26.189v-67.346h26.189
	c15.728,0,28.94,10.793,32.635,25.367v0.012C241.049,193.22,241.406,195.995,241.406,198.856z"/>
<path style="fill:#ED5343;" d="M200.139,185.24l-4.58,7.563l-14.009,23.157H155.36c-9.295,0-17.717-3.769-23.82-9.859
	c-4.224-4.236-7.33-9.577-8.828-15.556c3.708-14.574,16.919-25.354,32.648-25.354h34.6L200.139,185.24z"/>
<path style="fill:#A4DDD8;" d="M240.374,190.556v0.012c-3.696,14.599-16.907,25.391-32.635,25.391h-26.189v-50.77h26.189
	C223.467,165.189,236.678,175.982,240.374,190.556z"/>
<path style="fill:#D83E32;" d="M200.139,316.1l-8.558,14.144l-10.031,16.576H155.36c-9.295,0-17.717-3.769-23.82-9.859
	c-6.09-6.102-9.859-14.525-9.859-23.82c0-2.873,0.356-5.66,1.031-8.312c3.708-14.574,16.919-25.354,32.648-25.354h26.189
	l14.009,27.614L200.139,316.1z"/>
<path style="fill:#96CCC6;" d="M241.406,313.141c0,18.601-15.078,33.679-33.667,33.679h-26.189v-67.346h26.189
	c15.728,0,28.94,10.793,32.635,25.367v0.012C241.049,307.506,241.406,310.281,241.406,313.141z"/>
<path style="fill:#ED5343;" d="M200.139,299.525l-4.58,7.563l-14.009,23.157H155.36c-9.295,0-17.717-3.769-23.82-9.859
	c-4.224-4.236-7.33-9.577-8.828-15.556c3.708-14.574,16.919-25.354,32.648-25.354h34.6L200.139,299.525z"/>
<path style="fill:#A4DDD8;" d="M240.374,304.841v0.012c-3.696,14.599-16.907,25.391-32.635,25.391h-26.189v-50.77h26.189
	C223.467,279.475,236.678,290.267,240.374,304.841z"/>
<path style="fill:#D83E32;" d="M200.139,430.398l-8.558,14.144l-10.031,16.576H155.36c-9.295,0-17.717-3.769-23.82-9.859
	c-6.09-6.102-9.859-14.525-9.859-23.82c0-2.873,0.356-5.66,1.031-8.312c3.708-14.574,16.919-25.354,32.648-25.354h26.189
	l14.009,27.614L200.139,430.398z"/>
<path style="fill:#96CCC6;" d="M241.406,427.439c0,18.601-15.078,33.679-33.667,33.679h-26.189v-67.346h26.189
	c15.728,0,28.94,10.793,32.635,25.367v0.012C241.049,421.803,241.406,424.578,241.406,427.439z"/>
<path style="fill:#ED5343;" d="M200.139,413.822l-4.58,7.563l-14.009,23.157H155.36c-9.295,0-17.717-3.769-23.82-9.859
	c-4.224-4.236-7.33-9.577-8.828-15.556c3.708-14.574,16.919-25.354,32.648-25.354h34.6L200.139,413.822z"/>
<path style="fill:#A4DDD8;" d="M240.374,419.139v0.012c-3.696,14.599-16.907,25.391-32.635,25.391h-26.189v-50.77h26.189
	C223.467,393.772,236.678,404.565,240.374,419.139z"/>
<path style="fill:#D83E32;" d="M350.08,87.505l-8.558,14.144l-10.031,16.576h-26.189c-9.295,0-17.717-3.769-23.82-9.859
	c-6.09-6.102-9.859-14.525-9.859-23.82c0-2.873,0.356-5.66,1.031-8.312c3.708-14.574,16.919-25.354,32.648-25.354h26.189
	L345.5,78.493L350.08,87.505z"/>
<path style="fill:#96CCC6;" d="M391.347,84.546c0,18.601-15.078,33.679-33.667,33.679h-26.189V50.88h26.189
	c15.728,0,28.94,10.793,32.635,25.367v0.012C390.991,78.911,391.347,81.685,391.347,84.546z"/>
<path style="fill:#ED5343;" d="M350.08,70.93l-4.58,7.563l-14.009,23.157h-26.189c-9.295,0-17.717-3.769-23.82-9.859
	c-4.224-4.236-7.33-9.577-8.828-15.556c3.708-14.574,16.919-25.354,32.648-25.354h34.6L350.08,70.93z"/>
<path style="fill:#A4DDD8;" d="M390.315,76.246v0.012c-3.696,14.599-16.907,25.391-32.635,25.391h-26.189V50.88h26.189
	C373.408,50.88,386.62,61.672,390.315,76.246z"/>
<path style="fill:#D83E32;" d="M350.08,201.815l-8.558,14.144l-10.031,16.576h-26.189c-9.295,0-17.717-3.769-23.82-9.859
	c-6.09-6.102-9.859-14.525-9.859-23.82c0-2.873,0.356-5.66,1.031-8.312c3.708-14.574,16.919-25.354,32.648-25.354h26.189
	l14.009,27.614L350.08,201.815z"/>
<path style="fill:#96CCC6;" d="M391.347,198.856c0,18.601-15.078,33.679-33.667,33.679h-26.189v-67.346h26.189
	c15.728,0,28.94,10.793,32.635,25.367v0.012C390.991,193.22,391.347,195.995,391.347,198.856z"/>
<path style="fill:#ED5343;" d="M350.08,185.24l-4.58,7.563l-14.009,23.157h-26.189c-9.295,0-17.717-3.769-23.82-9.859
	c-4.224-4.236-7.33-9.577-8.828-15.556c3.708-14.574,16.919-25.354,32.648-25.354h34.6L350.08,185.24z"/>
<path style="fill:#A4DDD8;" d="M390.315,190.556v0.012c-3.696,14.599-16.907,25.391-32.635,25.391h-26.189v-50.77h26.189
	C373.408,165.189,386.62,175.982,390.315,190.556z"/>
<path style="fill:#D83E32;" d="M350.08,316.1l-8.558,14.144l-10.031,16.576h-26.189c-9.295,0-17.717-3.769-23.82-9.859
	c-6.09-6.102-9.859-14.525-9.859-23.82c0-2.873,0.356-5.66,1.031-8.312c3.708-14.574,16.919-25.354,32.648-25.354h26.189
	l14.009,27.614L350.08,316.1z"/>
<path style="fill:#96CCC6;" d="M391.347,313.141c0,18.601-15.078,33.679-33.667,33.679h-26.189v-67.346h26.189
	c15.728,0,28.94,10.793,32.635,25.367v0.012C390.991,307.506,391.347,310.281,391.347,313.141z"/>
<path style="fill:#ED5343;" d="M350.08,299.525l-4.58,7.563l-14.009,23.157h-26.189c-9.295,0-17.717-3.769-23.82-9.859
	c-4.224-4.236-7.33-9.577-8.828-15.556c3.708-14.574,16.919-25.354,32.648-25.354h34.6L350.08,299.525z"/>
<path style="fill:#A4DDD8;" d="M390.315,304.841v0.012c-3.696,14.599-16.907,25.391-32.635,25.391h-26.189v-50.77h26.189
	C373.408,279.475,386.62,290.267,390.315,304.841z"/>
<path style="fill:#D83E32;" d="M350.08,430.398l-8.558,14.144l-10.031,16.576h-26.189c-9.295,0-17.717-3.769-23.82-9.859
	c-6.09-6.102-9.859-14.525-9.859-23.82c0-2.873,0.356-5.66,1.031-8.312c3.708-14.574,16.919-25.354,32.648-25.354h26.189
	l14.009,27.614L350.08,430.398z"/>
<path style="fill:#96CCC6;" d="M391.347,427.439c0,18.601-15.078,33.679-33.667,33.679h-26.189v-67.346h26.189
	c15.728,0,28.94,10.793,32.635,25.367v0.012C390.991,421.803,391.347,424.578,391.347,427.439z"/>
<path style="fill:#ED5343;" d="M350.08,413.822l-4.58,7.563l-14.009,23.157h-26.189c-9.295,0-17.717-3.769-23.82-9.859
	c-4.224-4.236-7.33-9.577-8.828-15.556c3.708-14.574,16.919-25.354,32.648-25.354h34.6L350.08,413.822z"/>
<path style="fill:#A4DDD8;" d="M390.315,419.139v0.012c-3.696,14.599-16.907,25.391-32.635,25.391h-26.189v-50.77h26.189
	C373.408,393.772,386.62,404.565,390.315,419.139z"/>
<g>
</g>
<g>
</g>
<g>
</g>
<g>
</g>
<g>
</g>
<g>
</g>
<g>
</g>
<g>
</g>
<g>
</g>
<g>
</g>
<g>
</g>
<g>
</g>
<g>
</g>
<g>
</g>
<g>
</g>
</svg>
